:FULLY-SPECIFIED
:FORCE-ALL-JOINTS-BE-3DOF
:DEGREES
2956
root -6.02339 13.1451 -28.7622 1240.87 -66.6663 -157.858
lfemur -67.8147 43.5449 -6.61122
ltibia 77.7764 0 0
lfoot -7.86285 -2.84485 0
ltoes -39.0471 0 0
rfemur -34.1526 -17.8374 22.7067
rtibia 90.7341 0 0
rfoot -40.6219 -30.1836 0
rtoes -13.8233 0 0
lowerback 16.2496 5.30009 1.38898
upperback -4.44246 7.62639 1.46288
thorax -14.1541 3.47271 -1.28135
lowerneck -2.91584 9.48107 1.65421
upperneck 8.26847 12.4172 1.6771
head 3.17012 6.24777 0.725396
lclavicle 8.90512e-15 9.85958e-15 0
lhumerus 5.78564 14.5545 82.8557
lradius 90.726 0 0
lwrist -18.2741 0 0
lhand -38.8268 388.617 0
lfingers 7.12502 0 0
lthumb -11.8365 -661.743 0
rclavicle 8.90512e-15 9.85958e-15 0
rhumerus -57.8326 50.6124 -110.95
rradius 112.798 0 0
rwrist -81.931 0 0
rhand 7.08582 -385.421 0
rfingers 7.12502 0 0
rthumb 32.3546 307.473 0
2957
root -6.00979 13.1562 -28.7776 1240.02 -66.7193 -156.968
lfemur -67.796 43.3006 -6.67082
ltibia 77.484 0 0
lfoot -7.86198 -2.71706 0
ltoes -39.0466 0 0
rfemur -34.1701 -17.7134 22.7818
rtibia 90.6293 0 0
rfoot -40.5388 -30.1822 0
rtoes -13.8211 0 0
lowerback 16.2478 5.28843 1.38841
upperback -4.42489 7.60888 1.45527
thorax -14.1323 3.46496 -1.28347
lowerneck -2.89861 9.41506 1.60147
upperneck 8.19434 12.3318 1.69073
head 3.14293 6.20461 0.736047
lclavicle 8.05085e-15 9.50865e-15 0
lhumerus 5.84164 14.4882 82.8315
lradius 90.6705 0 0
lwrist -18.1428 0 0
lhand -38.7344 388.613 0
lfingers 7.12502 0 0
lthumb -11.7473 -661.744 0
rclavicle 8.05085e-15 9.50865e-15 0
rhumerus -57.3821 50.3663 -110.697
rradius 112.745 0 0
rwrist -81.7842 0 0
rhand 6.93085 -385.457 0
rfingers 7.12502 0 0
rthumb 32.2059 307.419 0
2958
root -5.99482 13.1685 -28.7946 1239.07 -66.7825 -155.978
lfemur -67.7751 43.0301 -6.73742
ltibia 77.1554 0 0
lfoot -7.85976 -2.57777 0
ltoes -39.0379 0 0
rfemur -34.1866 -17.5759 22.8655
rtibia 90.5114 0 0
rfoot -40.4471 -30.1788 0
rtoes -13.8182 0 0
lowerback 16.2459 5.27613 1.38794
upperback -4.40567 7.59034 1.44685
thorax -14.1085 3.45677 -1.28614
lowerneck -2.87935 9.34216 1.54388
upperneck 8.11329 12.2374 1.70603
head 3.11302 6.15695 0.747798
lclavicle 7.20389e-15 9.12794e-15 0
lhumerus 5.90196 14.4144 82.8066
lradius 90.6116 0 0
lwrist -17.9967 0 0
lhand -38.6334 388.611 0
lfingers 7.12502 0 0
lthumb -11.6498 -661.743 0
rclavicle 7.20389e-15 9.12794e-15 0
rhumerus -56.8842 50.0914 -110.419
rradius 112.688 0 0
rwrist -81.6229 0 0
rhand 6.75859 -385.498 0
rfingers 7.12502 0 0
rthumb 32.0407 307.358 0
2959
root -5.9784 13.1823 -28.8132 1238.02 -66.8551 -154.883
lfemur -67.7514 42.7322 -6.81105
ltibia 76.7897 0 0
lfoot -7.85596 -2.42664 0
ltoes -39.0203 0 0
rfemur -34.2023 -17.4245 22.9581
rtibia 90.3796 0 0
rfoot -40.3464 -30.1735 0
rtoes -13.8142 0 0
lowerback 16.2438 5.2631 1.38752
upperback -4.38471 7.57065 1.43761
thorax -14.0825 3.44808 -1.28928
lowerneck -2.85789 9.26188 1.48113
upperneck 8.02499 12.1334 1.7232
head 3.08026 6.10448 0.760752
lclavicle 6.36652e-15 8.71737e-15 0
lhumerus 5.96722 14.3321 82.7808
lradius 90.5487 0 0
lwrist -17.8353 0 0
lhand -38.5235 388.613 0
lfingers 7.12502 0 0
lthumb -11.5438 -661.737 0
rclavicle 6.36652e-15 8.71737e-15 0
rhumerus -56.3361 49.7868 -110.113
rradius 112.626 0 0
rwrist -81.4465 0 0
rhand 6.56857 -385.543 0
rfingers 7.12502 0 0
rthumb 31.8584 307.29 0
2960
root -5.96044 13.1975 -28.8336 1236.87 -66.9365 -153.679
lfemur -67.7245 42.4058 -6.89174
ltibia 76.3862 0 0
lfoot -7.85038 -2.26334 0
ltoes -38.9932 0 0
rfemur -34.217 -17.2589 23.0599
rtibia 90.2331 0 0
rfoot -40.2362 -30.1662 0
rtoes -13.8089 0 0
lowerback 16.2413 5.24925 1.38708
upperback -4.36193 7.54967 1.42755
thorax -14.0543 3.43883 -1.29282
lowerneck -2.83404 9.17376 1.4129
upperneck 7.92912 12.0192 1.74245
head 3.04458 6.04686 0.77501
lclavicle 5.54103e-15 8.27686e-15 0
lhumerus 6.03801 14.2403 82.7542
lradius 90.4813 0 0
lwrist -17.6583 0 0
lhand -38.4044 388.619 0
lfingers 7.12502 0 0
lthumb -11.4288 -661.727 0
rclavicle 5.54103e-15 8.27686e-15 0
rhumerus -55.7352 49.4517 -109.778
rradius 112.558 0 0
rwrist -81.2542 0 0
rhand 6.36027 -385.593 0
rfingers 7.12502 0 0
rthumb 31.6586 307.216 0
2961
root -5.94088 13.2142 -28.8559 1235.6 -67.0258 -152.36
lfemur -67.6937 42.0501 -6.97953
ltibia 75.9442 0 0
lfoot -7.84277 -2.08754 0
ltoes -38.956 0 0
rfemur -34.2309 -17.0787 23.1712
rtibia 90.0711 0 0
rfoot -40.116 -30.1568 0
rtoes -13.8019 0 0
lowerback 16.2386 5.23449 1.38656
upperback -4.33727 7.52726 1.41665
thorax -14.0236 3.42897 -1.29671
lowerneck -2.80763 9.0773 1.33887
upperneck 7.82537 11.894 1.76399
head 3.00585 5.98378 0.790675
lclavicle 4.72969e-15 7.80635e-15 0
lhumerus 6.11493 14.1378 82.7267
lradius 90.4091 0 0
lwrist -17.4653 0 0
lhand -38.2758 388.628 0
lfingers 7.12502 0 0
lthumb -11.3047 -661.714 0
rclavicle 4.72969e-15 7.80635e-15 0
rhumerus -55.0786 49.0853 -109.413
rradius 112.485 0 0
rwrist -81.0453 0 0
rhand 6.13321 -385.648 0
rfingers 7.12502 0 0
rthumb 31.4407 307.134 0
2962
root -5.91962 13.2326 -28.8802 1234.22 -67.1223 -150.924
lfemur -67.6587 41.6638 -7.07444
ltibia 75.4628 0 0
lfoot -7.83292 -1.8989 0
ltoes -38.9081 0 0
rfemur -34.244 -16.8836 23.2922
rtibia 89.8929 0 0
rfoot -39.9854 -30.1452 0
rtoes -13.793 0 0
lowerback 16.2355 5.21874 1.38589
upperback -4.31064 7.50329 1.40493
thorax -13.9905 3.41844 -1.30087
lowerneck -2.77846 8.97204 1.25871
upperneck 7.71342 11.7573 1.78802
head 2.96399 5.91491 0.80785
lclavicle 3.93477e-15 7.30575e-15 0
lhumerus 6.19858 14.0237 82.6984
lradius 90.3314 0 0
lwrist -17.256 0 0
lhand -38.1375 388.642 0
lfingers 7.12502 0 0
lthumb -11.1712 -661.696 0
rclavicle 3.93477e-15 7.30575e-15 0
rhumerus -54.3638 48.6869 -109.015
rradius 112.405 0 0
rwrist -80.819 0 0
rhand 5.88689 -385.709 0
rfingers 7.12502 0 0
rthumb 31.2044 307.045 0
2963
root -5.89658 13.2526 -28.9067 1232.73 -67.2253 -149.364
lfemur -67.6188 41.2459 -7.17652
ltibia 74.9412 0 0
lfoot -7.82061 -1.6971 0
ltoes -38.8491 0 0
rfemur -34.2562 -16.6732 23.4233
rtibia 89.6977 0 0
rfoot -39.8438 -30.1315 0
rtoes -13.7817 0 0
lowerback 16.2321 5.2019 1.38502
upperback -4.28196 7.47762 1.39236
thorax -13.9548 3.40717 -1.30523
lowerneck -2.74635 8.8575 1.17211
upperneck 7.59294 11.6085 1.81476
head 2.91889 5.83994 0.826637
lclavicle 3.15855e-15 6.77499e-15 0
lhumerus 6.28957 13.897 82.669
lradius 90.2479 0 0
lwrist -17.03 0 0
lhand -37.9891 388.659 0
lfingers 7.12502 0 0
lthumb -11.028 -661.674 0
rclavicle 3.15855e-15 6.77499e-15 0
rhumerus -53.5879 48.2556 -108.582
rradius 112.319 0 0
rwrist -80.5747 0 0
rhand 5.62082 -385.774 0
rfingers 7.12502 0 0
rthumb 30.9491 306.948 0
2964
root -5.87168 13.2744 -28.9354 1231.1 -67.3339 -147.677
lfemur -67.5736 40.7953 -7.28579
ltibia 74.3788 0 0
lfoot -7.80561 -1.48179 0
ltoes -38.7781 0 0
rfemur -34.2677 -16.4472 23.5648
rtibia 89.4848 0 0
rfoot -39.6909 -30.1156 0
rtoes -13.7679 0 0
lowerback 16.2281 5.18389 1.38387
upperback -4.25117 7.45012 1.37894
thorax -13.9163 3.39512 -1.30972
lowerneck -2.71113 8.7332 1.07875
upperneck 7.46362 11.4468 1.8444
head 2.87046 5.75855 0.847138
lclavicle 2.40332e-15 6.21399e-15 0
lhumerus 6.3885 13.7565 82.6387
lradius 90.158 0 0
lwrist -16.7869 0 0
lhand -37.8305 388.681 0
lfingers 7.12502 0 0
lthumb -10.8749 -661.648 0
rclavicle 2.40332e-15 6.21399e-15 0
rhumerus -52.7483 47.7906 -108.114
rradius 112.226 0 0
rwrist -80.3115 0 0
rhand 5.3345 -385.845 0
rfingers 7.12502 0 0
rthumb 30.6744 306.844 0
2965
root -5.84484 13.298 -28.9665 1229.36 -67.4474 -145.859
lfemur -67.5225 40.3111 -7.40229
ltibia 73.7748 0 0
lfoot -7.78771 -1.25265 0
ltoes -38.6947 0 0
rfemur -34.2784 -16.2052 23.7168
rtibia 89.2533 0 0
rfoot -39.5261 -30.0974 0
rtoes -13.7512 0 0
lowerback 16.2237 5.16461 1.38238
upperback -4.21817 7.42065 1.36467
thorax -13.875 3.38222 -1.31428
lowerneck -2.67261 8.59867 0.978294
upperneck 7.32514 11.2717 1.87715
head 2.81859 5.6704 0.869457
lclavicle 1.67134e-15 5.62269e-15 0
lhumerus 6.49596 13.6013 82.6073
lradius 90.0611 0 0
lwrist -16.5263 0 0
lhand -37.6613 388.707 0
lfingers 7.12502 0 0
lthumb -10.7115 -661.616 0
rclavicle 1.67134e-15 5.62269e-15 0
rhumerus -51.8423 47.2913 -107.608
rradius 112.125 0 0
rwrist -80.0288 0 0
rhand 5.02744 -385.922 0
rfingers 7.12502 0 0
rthumb 30.3798 306.732 0
2966
root -5.81597 13.3235 -29.0001 1227.48 -67.5652 -143.904
lfemur -67.465 39.7921 -7.52606
ltibia 73.1284 0 0
lfoot -7.76668 -1.00935 0
ltoes -38.5983 0 0
rfemur -34.2885 -15.9469 23.8798
rtibia 89.0025 0 0
rfoot -39.349 -30.0768 0
rtoes -13.7313 0 0
lowerback 16.2187 5.14398 1.3805
upperback -4.1829 7.38909 1.34954
thorax -13.8307 3.36841 -1.31885
lowerneck -2.63061 8.45342 0.870435
upperneck 7.17718 11.0824 1.91323
head 2.76318 5.57519 0.893695
lclavicle 9.64895e-16 5.001e-15 0
lhumerus 6.61255 13.4303 82.5749
lradius 89.957 0 0
lwrist -16.2479 0 0
lhand -37.4812 388.738 0
lfingers 7.12502 0 0
lthumb -10.5377 -661.58 0
rclavicle 9.64895e-16 5.001e-15 0
rhumerus -50.8671 46.7567 -107.062
rradius 112.016 0 0
rwrist -79.7258 0 0
rhand 4.69913 -386.005 0
rfingers 7.12502 0 0
rthumb 30.0648 306.611 0
2967
root -5.785 13.3509 -29.0364 1225.46 -67.6863 -141.809
lfemur -67.4005 39.2372 -7.65712
ltibia 72.4388 0 0
lfoot -7.74229 -0.75155 0
ltoes -38.4883 0 0
rfemur -34.2978 -15.672 24.0539
rtibia 88.7317 0 0
rfoot -39.159 -30.0539 0
rtoes -13.7079 0 0
lowerback 16.2132 5.12191 1.37815
upperback -4.14527 7.35528 1.33355
thorax -13.7834 3.35364 -1.32334
lowerneck -2.58494 8.29699 0.754848
upperneck 7.01942 10.8785 1.95283
head 2.70414 5.47258 0.919955
lclavicle 2.8626e-16 4.34885e-15 0
lhumerus 6.73889 13.2425 82.5414
lradius 89.8449 0 0
lwrist -15.9513 0 0
lhand -37.2899 388.773 0
lfingers 7.12502 0 0
lthumb -10.3531 -661.539 0
rclavicle 2.8626e-16 4.34885e-15 0
rhumerus -49.8201 46.1861 -106.475
rradius 111.899 0 0
rwrist -79.4018 0 0
rhand 4.3491 -386.093 0
rfingers 7.12502 0 0
rthumb 29.7289 306.482 0
